<svg width="88" height="88" viewBox="0 0 87.5811 87.5811" fill="none" xmlns="http://www.w3.org/2000/svg">
<path d="M43.79 0C67.9744 3.11624e-05 87.5809 19.6057 87.5811 43.79C87.581 67.9745 67.9745 87.581 43.79 87.5811C19.6057 87.5809 3.11605e-05 67.9744 0 43.79C0.000189672 19.6058 19.6058 0.000189696 43.79 0ZM43.79 5.79199C22.8044 5.79218 5.79218 22.8044 5.79199 43.79C5.79202 64.7758 22.8043 81.7879 43.79 81.7881C64.7759 81.7881 81.7881 64.7759 81.7881 43.79C81.7879 22.8043 64.7758 5.79202 43.79 5.79199ZM48.0518 38.9561C49.1561 38.9561 50.0515 39.8517 50.0518 40.9561V67.5127C50.0518 68.6172 49.1563 69.5126 48.0518 69.5127H39.5283C38.4239 69.5125 37.5283 68.6172 37.5283 67.5127V40.9561C37.5286 39.8518 38.424 38.9562 39.5283 38.9561H48.0518ZM59.4473 23.9287C60.5517 23.9287 61.4471 24.8243 61.4473 25.9287V34.4521C61.4472 35.5567 60.5518 36.4521 59.4473 36.4521H28.1328C27.0283 36.4521 26.1328 35.5567 26.1328 34.4521V25.9287C26.133 24.8243 27.0284 23.9287 28.1328 23.9287H59.4473Z" fill="#4231FF"/>
</svg>
