<svg width="356" height="46" viewBox="101.778 24.2545 355.724 45.6623" fill="none" xmlns="http://www.w3.org/2000/svg">
<path d="M438.846 61.698H457.502V69.9167H429.388V24.2546H438.846V61.698Z" fill="white"/>
<path d="M391.229 69.9168V24.2545H422.997V32.4737H400.688V42.8456H420.388V51.0648H400.688V61.6976H423.258V69.9168H391.229Z" fill="white"/>
<path d="M353.071 69.9168V24.2545H384.839V32.4737H362.53V42.8456H382.23V51.0648H362.53V61.6976H385.1V69.9168H353.071Z" fill="white"/>
<path d="M318.639 42.8455H336.838V24.2546H346.297V69.9167H336.838V51.0652H318.639V69.9167H309.18V24.2546H318.639V42.8455Z" fill="white"/>
<path d="M258.308 60.4373L267.147 24.2546H277.454L286.292 60.4373L295.131 24.2546H304.459L292.653 69.9167H279.932L272.3 40.4001L264.668 69.9167H251.948L240.141 24.2546H249.469L258.308 60.4373Z" fill="white"/>
<path d="M218.136 24.2546C222.094 24.2546 225.551 24.7544 228.508 25.7546C231.509 26.7548 233.835 28.3859 235.488 30.6472C237.184 32.865 238.032 35.844 238.032 39.5837C238.032 43.2802 237.184 46.2599 235.488 48.5212C233.835 50.7824 231.509 52.4126 228.508 53.4128C225.551 54.4131 222.094 54.9138 218.136 54.9138H211.809V69.9167H202.35V24.2546H218.136ZM211.809 32.4734V46.6941H218.136C220.223 46.6941 222.006 46.5205 223.485 46.1726C225.007 45.7812 226.16 45.0849 226.943 44.0847C227.769 43.041 228.182 41.5404 228.182 39.5837C228.182 37.627 227.769 36.1483 226.943 35.1482C226.16 34.1045 225.007 33.4092 223.485 33.0613C222.006 32.6699 220.224 32.4734 218.136 32.4734H211.809Z" fill="white"/>
<path d="M186.106 24.2545H195.564V69.9168H186.106V24.2545Z" fill="white"/>
<path d="M160.039 24.2546C163.996 24.2546 167.453 24.7335 170.411 25.6902C173.411 26.6469 175.739 28.2121 177.391 30.3865C179.087 32.5608 179.935 35.5179 179.935 39.2576C179.935 42.954 179.087 45.9118 177.391 48.1296C175.988 49.9762 174.097 51.381 171.721 52.3494L180.261 69.9167H169.498L162.821 54.1765C161.923 54.2324 160.995 54.2615 160.039 54.2615H153.711V69.9167H144.253V24.2546H160.039ZM153.711 32.4734V46.0417H160.039C162.126 46.0417 163.91 45.8462 165.388 45.4548C166.91 45.02 168.062 44.3245 168.845 43.3679C169.671 42.3677 170.084 40.9971 170.084 39.2576C170.084 37.5182 169.671 36.1703 168.845 35.2136C168.062 34.2134 166.91 33.5171 165.388 33.1257C163.91 32.6909 162.126 32.4734 160.039 32.4734H153.711Z" fill="white"/>
<path d="M139.677 32.4734H125.457V69.9167H115.999V32.4734H101.778V24.2546H139.677V32.4734Z" fill="white"/>
</svg>
