<svg width="458" height="88" viewBox="0 0 458 88" fill="none" xmlns="http://www.w3.org/2000/svg">
<path d="M43.79 0C67.9744 3.11624e-05 87.5809 19.6057 87.5811 43.79C87.581 67.9745 67.9745 87.581 43.79 87.5811C19.6057 87.5809 3.11605e-05 67.9744 0 43.79C0.000188809 19.6058 19.6058 0.000188834 43.79 0ZM43.79 5.79199C22.8044 5.79218 5.79218 22.8044 5.79199 43.79C5.79202 64.7758 22.8043 81.7879 43.79 81.7881C64.7759 81.7881 81.7881 64.7759 81.7881 43.79C81.7879 22.8043 64.7758 5.79202 43.79 5.79199ZM48.0518 38.9561C49.1561 38.9561 50.0515 39.8517 50.0518 40.9561V67.5127C50.0518 68.6172 49.1563 69.5126 48.0518 69.5127H39.5283C38.4239 69.5125 37.5283 68.6172 37.5283 67.5127V40.9561C37.5286 39.8518 38.424 38.9562 39.5283 38.9561H48.0518ZM59.4473 23.9287C60.5517 23.9287 61.4471 24.8243 61.4473 25.9287V34.4521C61.4472 35.5567 60.5518 36.4521 59.4473 36.4521H28.1328C27.0283 36.4521 26.1328 35.5567 26.1328 34.4521V25.9287C26.133 24.8243 27.0284 23.9287 28.1328 23.9287H59.4473Z" fill="white"/>
<path d="M438.846 61.698H457.502V69.9167H429.388V24.2546H438.846V61.698Z" fill="white"/>
<path d="M391.229 69.9168V24.2545H422.997V32.4737H400.688V42.8456H420.388V51.0648H400.688V61.6976H423.258V69.9168H391.229Z" fill="white"/>
<path d="M353.071 69.9168V24.2545H384.839V32.4737H362.53V42.8456H382.23V51.0648H362.53V61.6976H385.1V69.9168H353.071Z" fill="white"/>
<path d="M318.639 42.8455H336.838V24.2546H346.297V69.9167H336.838V51.0652H318.639V69.9167H309.18V24.2546H318.639V42.8455Z" fill="white"/>
<path d="M258.308 60.4373L267.147 24.2546H277.454L286.292 60.4373L295.131 24.2546H304.459L292.653 69.9167H279.932L272.3 40.4001L264.668 69.9167H251.948L240.141 24.2546H249.469L258.308 60.4373Z" fill="white"/>
<path d="M218.136 24.2546C222.094 24.2546 225.551 24.7544 228.508 25.7546C231.509 26.7548 233.835 28.3859 235.488 30.6472C237.184 32.865 238.032 35.844 238.032 39.5837C238.032 43.2802 237.184 46.2599 235.488 48.5212C233.835 50.7824 231.509 52.4126 228.508 53.4128C225.551 54.4131 222.094 54.9138 218.136 54.9138H211.809V69.9167H202.35V24.2546H218.136ZM211.809 32.4734V46.6941H218.136C220.223 46.6941 222.006 46.5205 223.485 46.1726C225.007 45.7812 226.16 45.0849 226.943 44.0847C227.769 43.041 228.182 41.5404 228.182 39.5837C228.182 37.627 227.769 36.1483 226.943 35.1482C226.16 34.1045 225.007 33.4092 223.485 33.0613C222.006 32.6699 220.224 32.4734 218.136 32.4734H211.809Z" fill="white"/>
<path d="M186.106 24.2545H195.564V69.9168H186.106V24.2545Z" fill="white"/>
<path d="M160.039 24.2546C163.996 24.2546 167.453 24.7335 170.411 25.6902C173.411 26.6469 175.739 28.2121 177.391 30.3865C179.087 32.5608 179.935 35.5179 179.935 39.2576C179.935 42.954 179.087 45.9118 177.391 48.1296C175.988 49.9762 174.097 51.381 171.721 52.3494L180.261 69.9167H169.498L162.821 54.1765C161.923 54.2324 160.995 54.2615 160.039 54.2615H153.711V69.9167H144.253V24.2546H160.039ZM153.711 32.4734V46.0417H160.039C162.126 46.0417 163.91 45.8462 165.388 45.4548C166.91 45.02 168.062 44.3245 168.845 43.3679C169.671 42.3677 170.084 40.9971 170.084 39.2576C170.084 37.5182 169.671 36.1703 168.845 35.2136C168.062 34.2134 166.91 33.5171 165.388 33.1257C163.91 32.6909 162.126 32.4734 160.039 32.4734H153.711Z" fill="white"/>
<path d="M139.677 32.4734H125.457V69.9167H115.999V32.4734H101.778V24.2546H139.677V32.4734Z" fill="white"/>
</svg>
